<?xml version="1.0" standalone="no"?>
<!DOCTYPE svg PUBLIC "-//W3C//DTD SVG 20010904//EN"
 "http://www.w3.org/TR/2001/REC-SVG-20010904/DTD/svg10.dtd">
<svg version="1.0" xmlns="http://www.w3.org/2000/svg"
 width="137.000000pt" height="137.000000pt" viewBox="0 0 137.000000 137.000000"
 preserveAspectRatio="xMidYMid meet">
<metadata>
Created by potrace 1.11, written by Peter Selinger 2001-2013
</metadata>
<g transform="translate(0.000000,137.000000) scale(0.100000,-0.100000)"
fill="#000000" stroke="none">
<path d="M673 1362 c-8 -5 -9 -13 -3 -22 7 -12 12 -12 22 -2 14 14 -1 35 -19
24z"/>
<path d="M510 1313 c-249 -158 -280 -199 -70 -92 77 39 140 73 140 76 0 7 -33
32 -40 32 -3 0 -16 -7 -30 -16z"/>
<path d="M910 1251 c0 -9 249 -175 255 -169 2 1 5 14 7 27 3 22 -9 31 -117 88
-118 62 -145 72 -145 54z"/>
<path d="M750 1232 c-93 -13 -200 -49 -200 -68 0 -17 18 -21 130 -29 195 -15
192 -15 186 9 -3 11 -6 38 -6 59 l0 38 -42 -3 c-24 -1 -54 -4 -68 -6z"/>
<path d="M550 1103 c-57 -43 -180 -174 -180 -192 0 -9 7 -25 15 -35 8 -11 15
-23 15 -27 0 -7 -80 -22 -125 -24 -17 0 -20 -6 -17 -45 4 -57 28 -151 54 -213
19 -45 22 -47 55 -43 18 2 36 6 39 9 3 3 6 73 6 155 l0 150 126 74 c70 40 132
74 139 76 10 3 223 -111 271 -144 8 -6 3 -307 -5 -315 -12 -12 -252 -149 -261
-149 -4 0 -60 31 -125 70 -65 38 -125 71 -133 72 -10 2 -25 -21 -44 -67 -17
-38 -30 -71 -30 -73 0 -14 227 -82 277 -82 16 0 28 10 40 35 l18 35 45 -60
c25 -33 50 -60 56 -60 15 0 144 119 184 171 l32 39 -22 35 c-12 19 -18 35 -13
35 17 1 89 12 119 18 l31 7 -13 74 c-7 41 -25 108 -39 148 -27 72 -28 73 -61
71 -18 -1 -36 0 -39 3 -3 3 6 33 20 67 14 34 25 66 25 71 0 18 -208 80 -271
81 -21 0 -30 -7 -41 -36 l-14 -35 -50 65 -50 65 -34 -26z"/>
<path d="M267 1063 c-31 -61 -65 -167 -69 -213 -6 -66 26 -42 116 87 l84 122
-33 19 c-65 39 -72 38 -98 -15z"/>
<path d="M1033 1043 c-7 -3 -13 -9 -13 -13 0 -5 29 -70 65 -145 72 -151 64
-146 137 -92 32 24 30 32 -43 122 -58 72 -129 133 -146 128z"/>
<path d="M95 1030 c-10 -17 12 -37 25 -24 8 8 6 15 -4 23 -10 9 -16 9 -21 1z"/>
<path d="M1245 1030 c-10 -17 12 -37 25 -24 8 8 6 15 -4 23 -10 9 -16 9 -21 1z"/>
<path d="M80 902 c-8 -3 -18 -9 -21 -14 -6 -10 -2 -217 5 -253 3 -11 5 -27 5
-35 1 -8 4 -10 10 -5 5 6 12 64 16 130 3 66 8 132 11 147 4 29 -3 38 -26 30z"/>
<path d="M1279 748 c-1 -18 -2 -49 -4 -68 -1 -19 -4 -73 -6 -120 -4 -80 -3
-85 16 -85 19 0 20 7 22 125 1 131 -3 180 -18 180 -5 0 -9 -15 -10 -32z"/>
<path d="M475 756 c-2 -6 -6 -36 -8 -66 -3 -30 -8 -65 -12 -77 -6 -17 -3 -21
12 -18 10 2 21 4 26 4 4 1 7 22 7 49 l1 47 20 -38 c23 -45 37 -44 61 4 l17 34
2 -32 c1 -18 3 -37 4 -43 1 -5 3 -14 4 -18 0 -4 10 -8 22 -9 18 -2 20 2 14 25
-4 15 -9 52 -12 82 -6 81 -34 88 -63 15 -7 -19 -17 -35 -21 -35 -3 0 -14 20
-23 43 -15 41 -43 59 -51 33z"/>
<path d="M692 763 c-7 -3 -17 -13 -22 -24 -14 -25 2 -54 41 -74 46 -25 27 -51
-22 -31 -10 5 -19 1 -23 -9 -4 -11 3 -19 21 -26 38 -14 72 -3 85 27 11 23 9
29 -13 48 -15 11 -35 26 -45 32 -15 10 -17 14 -6 25 9 10 15 10 24 1 7 -7 21
-12 31 -12 18 0 18 2 5 22 -15 22 -48 31 -76 21z"/>
<path d="M790 757 c0 -8 3 -17 8 -21 4 -4 8 -34 8 -67 1 -32 2 -63 3 -67 1 -7
44 -9 98 -3 16 1 12 41 -4 41 -6 0 -15 -4 -18 -10 -3 -5 -15 -10 -25 -10 -17
0 -19 9 -22 72 -3 65 -5 71 -25 74 -14 3 -23 -1 -23 -9z"/>
<path d="M175 598 c-22 -16 -43 -33 -48 -37 -19 -18 169 -231 205 -231 10 0
18 6 17 13 0 6 -30 73 -67 148 l-67 137 -40 -30z"/>
<path d="M1129 542 c-9 -15 -49 -73 -88 -129 l-71 -103 48 -22 c26 -13 50 -24
55 -26 11 -6 64 116 88 203 16 60 18 79 9 91 -17 20 -23 18 -41 -14z"/>
<path d="M96 364 c-8 -22 -8 -24 8 -24 21 0 28 16 12 29 -11 9 -15 8 -20 -5z"/>
<path d="M1240 356 c0 -8 4 -17 9 -20 11 -7 33 18 24 27 -12 12 -33 7 -33 -7z"/>
<path d="M198 268 c-2 -18 7 -29 47 -53 86 -52 205 -106 216 -99 10 6 -232
174 -251 174 -5 0 -10 -10 -12 -22z"/>
<path d="M508 193 c2 -32 6 -60 8 -62 7 -8 175 20 239 40 48 15 65 24 65 38 0
10 -6 18 -12 18 -15 0 -152 11 -244 19 l-60 6 4 -59z"/>
<path d="M918 144 c-71 -36 -128 -68 -128 -73 0 -5 6 -14 14 -20 18 -15 42 -3
174 81 86 56 109 79 80 77 -7 0 -70 -29 -140 -65z"/>
<path d="M666 31 c-7 -11 18 -33 27 -24 4 3 7 12 7 20 0 15 -26 18 -34 4z"/>
</g>
</svg>
